#!OML:ASF H:\Martial Arts Walks\Project 1\Capture day 1\Session 1\male.ASF
:FULLY-SPECIFIED
:DEGREES
645
root -3.23935 14.5049 -2.47961 9.15676 -22.8061 -14.1453
lowerback 8.0112 3.05777 7.71061
upperback -2.05786 5.11013 3.74219
thorax -6.353 2.27839 -1.04283
lowerneck -3.44016 2.3306 -0.270027
upperneck 5.34287 3.03151 1.69962
head 2.23492 1.5504 0.672828
rclavicle 9.77772e-015 -3.63776e-014
rhumerus -48.2406 24.2328 -79.9483
rradius 102.691
rwrist 5.58045
rhand -19.1252 -32.8711
rfingers 7.12502
rthumb 7.18426 -62.7291
lclavicle 9.77772e-015 -3.63776e-014
lhumerus -13.7333 -15.3724 81.8755
lradius 99.6714
lwrist 25.1304
lhand -29.3366 11.7849
lfingers 7.12502
lthumb -2.67679 41.7478
rfemur 2.95686 -9.69656 22.1676
rtibia 45.3452
rfoot -29.8179 -32.6929
rtoes -24.265
lfemur -63.2521 25.8195 -9.14442
ltibia 65.1569
lfoot -5.77596 -1.48041
ltoes 1.4145
646
root -3.23529 14.4907 -2.45423 9.19502 -22.6614 -14.15
lowerback 7.93608 3.05896 7.72712
upperback -2.11403 5.10872 3.72042
thorax -6.36678 2.27534 -1.07122
lowerneck -3.42867 2.3004 -0.287554
upperneck 5.39013 2.99111 1.70801
head 2.24849 1.53025 0.677754
rclavicle 1.92821e-014 -2.14687e-014
rhumerus -48.2705 24.3418 -80.0568
rradius 102.688
rwrist 5.65778
rhand -19.1397 -32.8211
rfingers 7.12502
rthumb 7.17027 -62.6796
lclavicle 1.92821e-014 -2.14687e-014
lhumerus -13.7495 -15.3538 81.9031
lradius 99.667
lwrist 25.0849
lhand -29.4118 11.8456
lfingers 7.12502
lthumb -2.74939 41.8076
rfemur 3.05703 -9.66178 22.1998
rtibia 45.2699
rfoot -29.7097 -32.95
rtoes -24.3485
lfemur -63.4756 25.7277 -9.22815
ltibia 65.4798
lfoot -5.94204 -1.43647
ltoes 1.46645
647
root -3.23207 14.4762 -2.42922 9.23224 -22.5227 -14.1954
lowerback 8.0192 3.05369 7.76011
upperback -2.25267 5.12554 3.70195
thorax -6.55764 2.27201 -1.11963
lowerneck -3.32707 2.29432 -0.269306
upperneck 5.40475 2.98024 1.73759
head 2.23477 1.5257 0.682146
rclavicle 5.2591e-014 3.02153e-014
rhumerus -48.4105 24.4318 -80.2643
rradius 102.648
rwrist 5.7451
rhand -19.1445 -32.7257
rfingers 7.12502
rthumb 7.16569 -62.5844
lclavicle 5.2591e-014 3.02153e-014
lhumerus -13.8593 -15.3518 81.955
lradius 99.6788
lwrist 24.9941
lhand -29.4519 12.1864
lfingers 7.12502
lthumb -2.78815 42.148
rfemur 3.19229 -9.67636 22.2346
rtibia 45.1805
rfoot -29.7477 -33.0291
rtoes -24.2891
lfemur -63.699 25.6968 -9.28358
ltibia 65.8063
lfoot -6.13201 -1.44102
ltoes 1.48071
648
root -3.22535 14.4619 -2.40394 9.28509 -22.3393 -14.3179
lowerback 7.8256 3.03562 7.96732
upperback -2.13733 5.08955 3.69116
thorax -6.30804 2.25769 -1.22418
lowerneck -3.61797 2.26173 -0.290245
upperneck 5.4657 2.93616 1.74859
head 2.3081 1.50492 0.69375
rclavicle -2.77056e-015 -1.19271e-015
rhumerus -48.1084 24.4581 -80.2285
rradius 102.625
rwrist 5.77891
rhand -19.0979 -32.5992
rfingers 7.12502
rthumb 7.2107 -62.4564
lclavicle -2.77056e-015 -1.19271e-015
lhumerus -13.5598 -15.3107 81.8871
lradius 99.6645
lwrist 24.9762
lhand -29.5048 12.3815
lfingers 7.12502
lthumb -2.83922 42.3424
rfemur 3.3368 -9.7653 22.3227
rtibia 45.0748
rfoot -29.6759 -33.1291
rtoes -24.3759
lfemur -63.9192 25.5899 -9.24188
ltibia 66.1337
lfoot -6.29292 -1.43385
ltoes 1.55543
649
root -3.22193 14.4497 -2.3787 9.37314 -22.2242 -14.4332
lowerback 7.77528 3.066 8.06666
upperback -2.24556 5.14529 3.71761
thorax -6.38586 2.27649 -1.25686
lowerneck -3.43959 2.23767 -0.331812
upperneck 5.53326 2.90421 1.7746
head 2.29725 1.48839 0.706018
rclavicle -8.25578e-014 -4.05521e-014
rhumerus -48.3226 24.4989 -80.3109
rradius 102.68
rwrist 5.82253
rhand -19.0948 -32.6785
rfingers 7.12502
rthumb 7.2136 -62.5355
lclavicle -8.25578e-014 -4.05521e-014
lhumerus -13.6709 -15.3267 82.0383
lradius 99.5955
lwrist 24.9491
lhand -29.5694 12.2954
lfingers 7.12502
lthumb -2.90165 42.2554
rfemur 3.44498 -9.83642 22.3901
rtibia 44.9607
rfoot -29.65 -33.1813
rtoes -24.3986
lfemur -64.1619 25.5983 -9.23753
ltibia 66.459
lfoot -6.42652 -1.52903
ltoes 1.82047
650
root -3.2185 14.4346 -2.35452 9.46223 -22.1065 -14.597
lowerback 7.4394 3.07379 8.28109
upperback -2.09376 5.12339 3.718
thorax -6.01546 2.27547 -1.3448
lowerneck -3.53656 2.22969 -0.337465
upperneck 5.43227 2.89384 1.7966
head 2.28137 1.48384 0.713927
rclavicle -5.84924e-014 -7.95139e-016
rhumerus -47.9891 24.4748 -80.3075
rradius 102.623
rwrist 5.81175
rhand -19.164 -32.623
rfingers 7.12502
rthumb 7.14688 -62.4823
lclavicle -5.84924e-014 -7.95139e-016
lhumerus -13.2544 -15.3046 81.9202
lradius 99.4973
lwrist 25.0419
lhand -29.5407 12.1008
lfingers 7.12502
lthumb -2.87392 42.0612
rfemur 3.57892 -9.93 22.487
rtibia 44.8456
rfoot -29.7098 -33.1222
rtoes -24.4133
lfemur -64.4147 25.6465 -9.19966
ltibia 66.7934
lfoot -6.53644 -1.7087
ltoes 2.15638
651
root -3.2159 14.422 -2.33 9.58758 -21.9882 -14.7638
lowerback 7.30635 3.07207 8.4331
upperback -2.11134 5.12284 3.75176
thorax -5.94948 2.27242 -1.38409
lowerneck -3.58233 2.22385 -0.354521
upperneck 5.47862 2.8854 1.814
head 2.30471 1.4801 0.723526
rclavicle -5.19325e-015 -3.77691e-015
rhumerus -48.009 24.5342 -80.3651
rradius 102.675
rwrist 5.75132
rhand -19.154 -32.5709
rfingers 7.12502
rthumb 7.15653 -62.4299
lclavicle -5.19325e-015 -3.77691e-015
lhumerus -13.1968 -15.2487 81.9741
lradius 99.4977
lwrist 25.0512
lhand -29.5193 11.9914
lfingers 7.12502
lthumb -2.85319 41.952
rfemur 3.67175 -10.0784 22.5677
rtibia 44.7365
rfoot -29.7162 -33.0802
rtoes -24.5375
lfemur -64.702 25.7093 -9.17856
ltibia 67.1141
lfoot -6.60699 -1.94051
ltoes 2.80764
652
root -3.21346 14.409 -2.30491 9.68484 -21.8908 -14.8952
lowerback 7.3825 3.09551 8.52779
upperback -2.25606 5.18733 3.78492
thorax -6.13868 2.29007 -1.41693
lowerneck -3.54789 2.18467 -0.416685
upperneck 5.61584 2.83144 1.8729
head 2.34292 1.45387 0.752551
rclavicle -3.05259e-014 2.16675e-014
rhumerus -48.2278 24.5546 -80.4525
rradius 102.719
rwrist 5.63469
rhand -19.2182 -32.6763
rfingers 7.12502
rthumb 7.09448 -62.5374
lclavicle -3.05259e-014 2.16675e-014
lhumerus -13.3303 -15.248 82.139
lradius 99.4907
lwrist 25.1131
lhand -29.3424 12.0608
lfingers 7.12502
lthumb -2.6824 42.0237
rfemur 3.7831 -10.2706 22.5795
rtibia 44.6271
rfoot -29.6411 -33.0318
rtoes -24.7339
lfemur -64.9492 25.7686 -9.17435
ltibia 67.4287
lfoot -6.64433 -2.21176
ltoes 3.48163
653
root -3.21091 14.397 -2.28166 9.76209 -21.7702 -14.9584
lowerback 7.19881 3.11186 8.6323
upperback -2.21131 5.19114 3.76422
thorax -5.97481 2.29555 -1.48241
lowerneck -3.6947 2.14827 -0.391723
upperneck 5.6697 2.78002 1.88153
head 2.38862 1.42982 0.7527
rclavicle -4.28257e-014 -4.73108e-014
rhumerus -48.1098 24.491 -80.4493
rradius 102.741
rwrist 5.50653
rhand -19.2198 -32.6935
rfingers 7.12502
rthumb 7.09296 -62.5546
lclavicle -4.28257e-014 -4.73108e-014
lhumerus -13.1293 -15.2208 82.1494
lradius 99.4236
lwrist 25.1681
lhand -29.4403 11.9363
lfingers 7.12502
lthumb -2.77689 41.898
rfemur 3.87659 -10.4811 22.5306
rtibia 44.5285
rfoot -29.6328 -32.9448
rtoes -25.0078
lfemur -65.2167 25.8081 -9.25658
ltibia 67.7268
lfoot -6.67275 -2.45717
ltoes 4.21642
654
root -3.20852 14.3848 -2.25811 9.8232 -21.6615 -15.0728
lowerback 7.07389 3.10668 8.75493
upperback -2.17906 5.17838 3.79035
thorax -5.86271 2.29056 -1.51126
lowerneck -3.75545 2.13615 -0.42471
upperneck 5.67687 2.76508 1.89255
head 2.40181 1.42228 0.762515
rclavicle 1.02995e-014 -2.80286e-014
rhumerus -48.0024 24.5065 -80.4541
rradius 102.724
rwrist 5.3709
rhand -19.2791 -32.7289
rfingers 7.12502
rthumb 7.03578 -62.5919
lclavicle 1.02995e-014 -2.80286e-014
lhumerus -12.9809 -15.143 82.1826
lradius 99.4013
lwrist 25.1713
lhand -29.6411 11.9345
lfingers 7.12502
lthumb -2.97086 41.8935
rfemur 4.00977 -10.6796 22.5251
rtibia 44.4294
rfoot -29.5582 -32.9176
rtoes -25.4406
lfemur -65.4379 25.8525 -9.2567
ltibia 68.0288
lfoot -6.73582 -2.65423
ltoes 4.77629
655
root -3.20725 14.3729 -2.23581 9.83639 -21.5614 -15.0816
lowerback 7.08493 3.09211 8.75411
upperback -2.24346 5.16771 3.81578
thorax -5.94144 2.2811 -1.48579
lowerneck -3.69413 2.13774 -0.521269
upperneck 5.73092 2.77047 1.92415
head 2.40679 1.4237 0.789001
rclavicle 3.00413e-014 3.12092e-014
rhumerus -48.1205 24.5615 -80.5078
rradius 102.759
rwrist 5.26967
rhand -19.2945 -32.8369
rfingers 7.12502
rthumb 7.0209 -62.7004
lclavicle 3.00413e-014 3.12092e-014
lhumerus -13.1054 -15.0587 82.3351
lradius 99.4484
lwrist 24.9989
lhand -29.3927 11.9368
lfingers 7.12502
lthumb -2.73093 41.8991
rfemur 4.14693 -10.897 22.4075
rtibia 44.354
rfoot -29.505 -32.869
rtoes -25.9719
lfemur -65.6304 25.8913 -9.35702
ltibia 68.3249
lfoot -6.81841 -2.82531
ltoes 5.31983
656
root -3.2059 14.3591 -2.21371 9.86701 -21.4343 -15.1114
lowerback 7.07166 3.08407 8.78316
upperback -2.29332 5.1637 3.83361
thorax -5.98706 2.27537 -1.48309
lowerneck -3.69724 2.10773 -0.496175
upperneck 5.80243 2.73211 1.85513
head 2.4328 1.4033 0.762571
rclavicle 2.91592e-014 8.94531e-015
rhumerus -48.2417 24.5508 -80.5208
rradius 102.801
rwrist 5.22995
rhand -19.2679 -32.8561
rfingers 7.12502
rthumb 7.04652 -62.7188
lclavicle 2.91592e-014 8.94531e-015
lhumerus -13.1379 -15.0508 82.4495
lradius 99.4239
lwrist 24.8111
lhand -29.4423 11.7357
lfingers 7.12502
lthumb -2.77887 41.6974
rfemur 4.27824 -11.1082 22.3252
rtibia 44.2852
rfoot -29.4777 -32.8316
rtoes -26.4833
lfemur -65.8644 25.9194 -9.44781
ltibia 68.6329
lfoot -6.87958 -3.02408
ltoes 5.7902
657
root -3.20523 14.3437 -2.19332 9.93116 -21.3011 -15.2235
lowerback 6.92085 3.082 8.92186
upperback -2.23714 5.14977 3.84515
thorax -5.83197 2.27136 -1.53348
lowerneck -3.78158 2.1026 -0.463372
upperneck 5.7958 2.72434 1.83977
head 2.44684 1.40002 0.753126
rclavicle -2.0773e-014 -1.8487e-014
rhumerus -48.1334 24.4783 -80.4979
rradius 102.79
rwrist 5.22923
rhand -19.2392 -32.928
rfingers 7.12502
rthumb 7.07421 -62.7898
lclavicle -2.0773e-014 -1.8487e-014
lhumerus -12.9384 -15.0371 82.4598
lradius 99.3886
lwrist 24.7618
lhand -29.5956 11.5636
lfingers 7.12502
lthumb -2.92689 41.5233
rfemur 4.37773 -11.3069 22.3442
rtibia 44.2377
rfoot -29.4985 -32.7664
rtoes -26.7972
lfemur -66.1199 25.9438 -9.44094
ltibia 68.9495
lfoot -6.92699 -3.2284
ltoes 6.45576
